<?xml version="1.0" encoding="utf-8"?>
<!-- Generator: Adobe Illustrator 25.1.0, SVG Export Plug-In . SVG Version: 6.00 Build 0)  -->
<svg version="1.1" id="Layer_1" xmlns="http://www.w3.org/2000/svg" xmlns:xlink="http://www.w3.org/1999/xlink" x="0px" y="0px"
	 viewBox="0 0 512 512" style="enable-background:new 0 0 512 512;" xml:space="preserve">
<style type="text/css">
	.st0{fill:#F26222;}
	.st1{font-family:'Montserrat-Regular';}
	.st2{font-size:68.5061px;}
	.st3{font-family:'Montserrat-Black';}
	.st4{fill:#72401A;}
	.st5{fill:#FEBE10;}
	.st6{fill:#F68B1F;}
	.st7{fill:#FFFFFF;}
</style>
<text transform="matrix(1 0 0 1 38.0996 386.0728)"><tspan x="0" y="0" class="st0 st1 st2">zapp</tspan><tspan x="168.3" y="0" class="st3 st2">2</tspan><tspan x="210" y="0" class="st0 st1 st2">gether</tspan></text>
<path class="st4" d="M143.1,318.2v-11.4c0-4.5-3.7-8.2-8.2-8.2h-17.7c-4.5,0-8.2,3.7-8.2,8.2v11.4c0,4.5,3.7,8.2,8.2,8.2h17.7
	C139.5,326.4,143.1,322.7,143.1,318.2z"/>
<path class="st4" d="M395.6,320.2v-11.4c0-4.5-3.7-8.2-8.2-8.2h-17.7c-4.5,0-8.2,3.7-8.2,8.2v11.4c0,4.5,3.7,8.2,8.2,8.2h17.7
	C391.9,328.4,395.6,324.7,395.6,320.2z"/>
<path class="st5" d="M235.3,188.2H123.9c-8.2,0-14.9,6.7-14.9,14.9v60.4c0,8.2,6.7,14.9,14.9,14.9h111.4c8.2,0,14.9-6.7,14.9-14.9
	V203C250.2,194.8,243.5,188.2,235.3,188.2z"/>
<path class="st5" d="M376.5,188.2H265.1c-8.2,0-14.9,6.7-14.9,14.9v60.4c0,8.2,6.7,14.9,14.9,14.9h111.4c8.2,0,14.9-6.7,14.9-14.9
	V203C391.4,194.8,384.7,188.2,376.5,188.2z"/>
<path class="st6" d="M394.2,256.5H110.5c-4.2,0-7.5,3.4-7.5,7.5v10.5c0,4.2,3.4,7.5,7.5,7.5h283.6c4.2,0,7.5-3.4,7.5-7.5v-10.5
	C401.7,259.9,398.3,256.5,394.2,256.5z"/>
<path class="st0" d="M411.7,236.5h-40.8c-3.3,0-5.9,2.6-5.9,5.9v8.2c0,3.3,2.6,5.9,5.9,5.9h40.8c3.3,0,5.9-2.6,5.9-5.9v-8.2
	C417.6,239.2,414.9,236.5,411.7,236.5z"/>
<path class="st0" d="M137.1,236.5H96.2c-3.3,0-5.9,2.6-5.9,5.9v8.2c0,3.3,2.6,5.9,5.9,5.9h40.8c3.3,0,5.9-2.6,5.9-5.9v-8.2
	C143,239.2,140.3,236.5,137.1,236.5z"/>
<path class="st0" d="M394.2,281.9H110.5c-4.2,0-7.5,3.4-7.5,7.5V300c0,4.2,3.4,7.5,7.5,7.5h283.6c4.2,0,7.5-3.4,7.5-7.5v-10.5
	C401.7,285.3,398.3,281.9,394.2,281.9z"/>
<ellipse class="st0" cx="175.5" cy="232.9" rx="5.4" ry="5.5"/>
<ellipse class="st0" cx="323.3" cy="232.9" rx="5.4" ry="5.5"/>
<g>
	<g id="br6pI9.tif">
		<g>
			<path d="M320.7,182.1c0.3,5.1-2,8.8-5.1,12.1c-17.6,19.3-36.1,37.9-55.5,55.5c-2.4,2.2-5.5,3.8-8.4,5.3c-3.1,1.6-6.3,1-9.4-0.2
				c-5.6-2.2-9.9-6-14-10.1c-8.9-9-17.6-18.1-26.1-27.5c-2.9-3.3-4.5-7.7-4.2-12.1c0.3-4,2.5-7.4,5.2-10.4
				c18.1-19.7,36.9-38.6,56.6-56.6c5.5-5,11.7-7.3,18.6-3c3.8,2.4,7.5,4.9,10.8,7.9c10.1,8.9,19.6,18.3,27.7,29.1
				C319.2,175,320.9,178.4,320.7,182.1z M238.8,190.3c7.8,7.8,15.3,15.3,22.9,23c3.5-11.1,7.1-22.2,10.8-33.6
				C261,183.4,249.8,186.9,238.8,190.3z"/>
			<path class="st7" d="M238.8,190.3c11.1-3.5,22.2-7,33.7-10.6c-3.7,11.4-7.2,22.5-10.8,33.6C254,205.6,246.5,198.1,238.8,190.3z"
				/>
		</g>
	</g>
	<path d="M391.4,165.5c-6,0.4-11.8,0.7-17.8,1.1c-2.6-23.5-13-42.8-30.9-57.8c-17.8-14.9-38.6-21.8-62.2-21.1
		c-0.7-6.3-1.3-12.4-1.9-18.4C327.6,64.8,386.9,104,391.4,165.5z"/>
	<path d="M356.5,168.1c-5.4,0.4-10.6,0.8-15.9,0.9c-0.8,0-2.2-1.1-2.4-1.9c-5.9-23.1-21.4-36.3-43.5-42.7c-3.3-1-6.9-1-10.8-1.4
		c-0.6-5.9-1.3-11.8-1.9-17.8C313.4,102.9,352.5,131,356.5,168.1z"/>
</g>
</svg>
